<?xml version="1.0" standalone="no"?>
<!DOCTYPE svg PUBLIC "-//W3C//DTD SVG 20010904//EN"
 "http://www.w3.org/TR/2001/REC-SVG-20010904/DTD/svg10.dtd">
<svg version="1.0" xmlns="http://www.w3.org/2000/svg"
 width="321.000000pt" height="321.000000pt" viewBox="0 0 321.000000 321.000000"
 preserveAspectRatio="xMidYMid meet">
<metadata>
Created by potrace 1.14, written by Peter Selinger 2001-2017
</metadata>
<g transform="translate(0.000000,321.000000) scale(0.100000,-0.100000)"
fill="#000000" stroke="none">
<path d="M1515 3190 c-4 -6 -11 -8 -16 -5 -5 4 -9 2 -9 -2 0 -5 -8 -9 -17 -10
-10 -1 -40 -3 -66 -5 -26 -3 -50 -1 -53 3 -5 9 -46 -6 -84 -32 -28 -18 -107
-45 -130 -44 -8 0 -48 -17 -89 -37 -40 -21 -78 -35 -82 -32 -5 3 -9 -2 -9 -11
0 -9 -3 -14 -7 -12 -5 2 -16 -4 -25 -15 -10 -10 -16 -18 -14 -18 2 0 -10 -15
-28 -33 -43 -45 -66 -75 -66 -87 0 -5 -18 -14 -40 -20 -22 -6 -38 -15 -35 -20
4 -6 1 -10 -5 -10 -6 0 -17 -15 -25 -32 -8 -18 -14 -30 -15 -25 0 4 -8 -1 -18
-10 -11 -10 -17 -21 -16 -24 2 -3 -8 -17 -21 -29 -14 -13 -25 -31 -25 -41 0
-9 -7 -20 -16 -23 -9 -4 -14 -9 -11 -13 3 -3 0 -18 -9 -34 -8 -16 -11 -29 -7
-29 5 0 0 -5 -9 -11 -15 -8 -38 -83 -27 -85 2 0 -8 -17 -24 -37 -15 -19 -27
-42 -27 -51 0 -8 -6 -21 -13 -28 -26 -27 -44 -64 -42 -85 1 -13 -1 -23 -5 -23
-4 0 -7 -6 -7 -12 0 -7 -4 -26 -8 -43 -4 -16 -9 -69 -12 -116 -4 -72 -2 -96
17 -149 12 -34 24 -77 25 -94 3 -32 47 -158 83 -237 11 -24 30 -73 43 -109 12
-36 39 -99 60 -141 22 -42 39 -81 39 -86 0 -5 23 -47 50 -93 28 -46 55 -101
61 -123 6 -22 28 -57 50 -80 33 -34 42 -52 38 -69 -2 -10 36 -83 53 -103 l22
-25 23 27 c16 20 22 23 23 12 0 -9 -9 -26 -20 -39 l-21 -24 49 -46 c35 -34 51
-58 56 -85 5 -25 14 -39 27 -42 10 -3 19 -12 19 -20 0 -8 7 -31 17 -50 13 -28
21 -34 40 -30 13 2 26 0 29 -5 3 -4 10 -6 15 -3 5 4 9 -7 9 -24 0 -35 14 -46
53 -42 26 2 27 1 16 -17 -11 -18 -8 -28 26 -79 46 -70 162 -185 203 -202 17
-7 39 -21 50 -31 11 -10 35 -20 53 -22 35 -4 39 -2 137 90 19 18 37 30 40 27
3 -3 19 8 36 24 17 17 42 40 56 53 14 13 32 35 39 50 8 15 18 25 22 22 4 -2
14 3 21 11 7 9 21 25 31 36 9 10 17 22 17 25 0 4 8 13 18 21 9 8 11 12 5 8
-17 -8 -16 3 1 20 7 8 16 11 20 8 3 -4 6 2 6 11 0 12 5 16 14 13 10 -4 13 -1
10 7 -3 7 2 16 11 20 9 3 14 10 10 15 -3 6 1 13 9 18 14 8 84 121 84 137 0 5
4 12 9 15 5 3 24 35 42 71 19 36 37 67 41 70 3 3 12 20 19 38 8 17 18 32 24
32 6 0 8 3 5 6 -4 3 7 18 23 33 16 16 34 43 41 62 6 18 23 43 37 55 14 12 35
39 47 60 11 22 30 55 41 74 38 68 47 85 48 93 0 4 6 11 13 16 8 5 13 12 12 17
-1 7 5 30 14 54 4 9 15 64 20 93 9 52 38 112 67 137 16 14 32 80 31 135 0 22
6 52 14 67 8 15 14 29 14 30 -1 4 8 31 26 81 18 48 20 263 2 269 -6 2 -12 29
-14 61 -1 31 -10 67 -18 79 -9 12 -16 28 -16 36 0 7 -7 29 -17 50 -9 20 -15
42 -14 47 2 6 0 7 -4 3 -9 -9 -34 14 -28 25 3 5 -3 27 -13 50 -20 44 -27 55
-59 90 -11 12 -19 25 -18 29 2 5 -2 8 -7 8 -6 0 -10 5 -10 12 0 6 -14 33 -31
60 -23 36 -37 48 -56 48 -13 0 -21 4 -18 10 3 6 2 10 -3 10 -6 0 -13 7 -16 16
-3 8 -2 12 4 9 25 -16 -5 23 -35 45 -19 14 -33 31 -30 38 3 7 -4 12 -16 12
-11 0 -17 5 -14 10 3 6 0 10 -8 10 -8 0 -19 10 -25 23 -6 12 -11 17 -11 10 -1
-8 -9 -7 -31 3 -17 9 -27 20 -24 28 3 8 -8 28 -25 45 -17 18 -31 26 -31 19 0
-6 -7 -3 -15 8 -9 12 -14 14 -15 6 0 -7 -5 -10 -10 -7 -6 4 -7 12 -4 18 5 8 3
8 -7 0 -7 -7 -17 -13 -22 -13 -4 0 -5 6 -1 13 5 7 0 6 -11 -3 -17 -14 -18 -13
-12 3 4 11 3 16 -4 12 -12 -8 -41 14 -33 26 3 5 -4 9 -15 9 -10 0 -21 6 -24
13 -3 9 -7 9 -20 -2 -15 -12 -17 -11 -17 2 0 16 -26 35 -58 42 -9 2 -53 13
-96 24 -87 23 -309 30 -321 11z"/>
</g>
</svg>
